<!--?xml version="1.0" encoding="UTF-8"?-->
<svg width="64" height="64" viewBox="0 0 64 64" xmlns="http://www.w3.org/2000/svg">
  <defs>
    <!-- gradient neon, ca la Oni -->
    <linearGradient id="ctrlGrad" x1="0" y1="0" x2="1" y2="1">
      <stop offset="0%" stop-color="#06d6a0"></stop>
      <stop offset="100%" stop-color="#118ab2"></stop>
    </linearGradient>

    <!-- glow subtil -->
    <filter id="ctrlGlow" x="-40%" y="-40%" width="180%" height="180%">
      <feGaussianBlur in="SourceGraphic" stdDeviation="1.4" result="blur"></feGaussianBlur>
      <feColorMatrix in="blur" type="matrix" values="0 0 0 0 0
                             0 0 0 0 0.9
                             0 0 0 0 0.7
                             0 0 0 0.9 0" result="glow"></feColorMatrix>
      <feMerge>
        <feMergeNode in="glow"></feMergeNode>
        <feMergeNode in="SourceGraphic"></feMergeNode>
      </feMerge>
    </filter>
  </defs>

  <!-- fundal rotunjit, dark -->
  <rect x="2" y="2" width="60" height="60" rx="16" fill="#020817"></rect>

  <!-- cerc subtil în spate, ca la Oni -->
  <circle cx="32" cy="32" r="22" fill="none" stroke="url(#ctrlGrad)" stroke-width="2.5" stroke-opacity="0.4"></circle>

  <!-- controller -->
  <g filter="url(#ctrlGlow)" stroke="url(#ctrlGrad)" stroke-width="2" stroke-linecap="round" stroke-linejoin="round" fill="none">

    <!-- corp controller -->
    <path d="M18 28
             Q22 22 32 22
             Q42 22 46 28
             Q49 32 48 37
             Q47 40 44 41
             Q41 42 38 40
             L34 38
             L30 38
             L26 40
             Q23 42 20 41
             Q17 40 16 37
             Q15 32 18 28 Z"></path>

    <!-- D-pad stânga -->
    <line x1="23" y1="31" x2="27" y2="31"></line>
    <line x1="25" y1="29" x2="25" y2="33"></line>

    <!-- butoane dreapta -->
    <circle cx="39" cy="30" r="1.6"></circle>
    <circle cx="43" cy="33.5" r="1.6"></circle>

    <!-- „ochi neon” stil Oni (stickuri luminoase) -->
    <path d="M27 35 Q29 36 31 35"></path>
    <path d="M33 35 Q35 36 37 35"></path>

  </g>
</svg>
